<svg xmlns="http://www.w3.org/2000/svg" xmlns:xlink="http://www.w3.org/1999/xlink" preserveAspectRatio="xMidYMid meet" version="1.0" viewBox="0.5 14.6 611.5 196.7" zoomAndPan="magnify" style="fill: rgb(0, 0, 0);"><linearGradient xmlns:xlink="http://www.w3.org/1999/xlink" gradientUnits="userSpaceOnUse" id="__id10_sxtl7nltdb" x1=".5" x2="609.802" xlink:actuate="onLoad" xlink:show="other" xlink:type="simple" y1="117.318" y2="117.318"><stop offset="0" style="stop-color: rgb(0, 151, 238);"></stop><stop offset=".539" style="stop-color: rgb(87, 255, 220);"></stop><stop offset="1" style="stop-color: rgb(0, 151, 238);"></stop></linearGradient><path d="M433.7,142.5c-29.9,0-89.2-33.3-122-51.8c-7.1-4-13.2-7.4-17.7-9.8c-26.2-13.8-43-7.9-64.4-0.5 c-19.4,6.7-41.4,14.3-76.3,9.2c-25.7-3.7-34.6-18.8-43.1-33.4C104,45.9,98.3,36.1,86.8,30.4C56.4,15.5,40.4,30,24.9,44 c-7.7,7-15,13.6-24,16.8l-0.3-0.7c8.8-3.2,16.1-9.8,23.7-16.7c15.7-14.1,32-28.8,62.8-13.7c11.7,5.7,17.5,15.7,23.7,26.1 c8.5,14.4,17.3,29.3,42.6,33c34.7,5.1,56.6-2.5,75.9-9.2c20.7-7.2,38.5-13.3,65,0.6c4.5,2.3,10.6,5.8,17.7,9.8 c35.1,19.7,100.3,56.3,127.3,51.2c5.8-1.1,11.8-2.1,18.1-3.2c28.6-4.9,61.1-10.4,83.4-25.9c2.3-1.6,4.5-3.2,6.8-4.8 C567,93.7,586.9,79.6,610,79.6c0.3,0,0.6,0,1,0v0.8c-0.3,0-0.6,0-0.9,0c-22.9,0-42.7,14-61.9,27.6c-2.3,1.6-4.5,3.2-6.8,4.8 c-22.5,15.6-55,21.1-83.7,26.1c-6.3,1.1-12.3,2.1-18.1,3.2C437.7,142.3,435.8,142.5,433.7,142.5z M422.4,141.3 c3.3-0.1,6.7-0.2,10.2-0.3c35.5-1,75.7-2.2,107.3-22.2c5.1-3.2,10.3-6.9,15.3-10.4c17.3-12.1,35.2-24.7,55.5-24.7c0.1,0,0.2,0,0.3,0 v-0.8c-0.1,0-0.2,0-0.3,0c-20.6,0-38.5,12.6-55.9,24.8c-5,3.5-10.2,7.1-15.3,10.4c-31.4,19.9-71.6,21.1-106.9,22.1 c-3.5,0.1-6.9,0.2-10.2,0.3c-0.6,0-1.1,0-1.7,0c-34.9,0-107.7-35-135.5-48.3l-0.3-0.2c-25.7-12.4-44.2-8.3-65.5-3.5 c-19.1,4.3-40.6,9.1-72.5,3.7c-23.2-3.9-31.9-18-40.4-31.7c-6.2-10.1-12.1-19.6-23.4-25C53.7,21.6,38,36.7,22.8,51.4 C15.6,58.4,8.7,65,0.6,68.2l0.3,0.7C9.2,65.6,16,59,23.3,52c15-14.5,30.5-29.4,59.5-15.6c11.2,5.2,17,14.7,23.2,24.7 c8.5,13.8,17.3,28.1,40.9,32c32,5.4,53.7,0.5,72.8-3.7c21.2-4.8,39.5-8.9,65,3.4L285,93c27.8,13.3,100.7,48.4,135.8,48.4 C421.3,141.4,421.9,141.4,422.4,141.3z M538.6,124.9c7-4.1,13.8-9.1,20.5-13.8c16.3-11.7,33.1-23.8,52.1-23.9v-0.8 c-19.3,0.1-36.2,12.2-52.6,24c-6.6,4.8-13.5,9.7-20.4,13.8c-41.7,24.5-89.4,19.9-131.5,15.8l-1.3-0.1c-36.4-3.4-102.3-23.9-130-36 c-24.9-10.9-43.9-8.9-65.8-6.6c-18.8,2-40.1,4.2-69.2-1.5c-21.1-4.2-29.7-17.5-38.1-30.4C96,55.7,90.1,46.5,79.2,41.5 c-28.3-13-44.1,3.3-58.1,17.8C14.4,66.4,8,73,0.6,76.2l0.3,0.7c7.5-3.2,14-9.9,20.8-17c14.5-15,29.5-30.5,57.3-17.7 c10.6,4.9,16.5,14,22.8,23.6c8.4,13,17.2,26.5,38.6,30.7c29.2,5.7,50.6,3.5,69.4,1.5c21.8-2.3,40.7-4.3,65.4,6.5 c27.7,12.1,93.7,32.6,130.2,36l1.3,0.1c16.4,1.6,33.7,3.3,51.1,3.3C485.2,144,513,139.9,538.6,124.9z M537.3,131 c8.3-4.6,16.4-10.7,24.2-16.5c16.3-12.2,31.7-23.7,49.9-24v-0.8c-8.3,0.1-16.8,2.6-26.1,7.7c-8.3,4.5-16.4,10.6-24.2,16.5 c-7.8,5.8-15.8,11.8-24.1,16.4c-48.1,26.6-97.6,19.4-148.4,9c-13.4-2.8-29-5.1-45.4-7.6c-28.9-4.4-58.8-8.9-77-16 c-23.8-9.3-43.2-9.6-65.7-9.9c-18.6-0.2-39.8-0.5-66.3-6.6c-19-4.4-27.5-16.9-35.8-29c-6.5-9.2-12.5-18-22.9-22.7 c-27.1-12-42.4,5-55.9,20c-6.3,7-12.3,13.6-18.9,16.8L1,85c6.8-3.2,12.8-9.9,19.2-16.9c13.4-14.8,28.5-31.6,55.1-19.8 c10.2,4.6,16.2,13.3,22.5,22.6c8.3,12.2,17,24.9,36.2,29.3c26.6,6.1,47.8,6.4,66.5,6.6c22.4,0.3,41.7,0.5,65.4,9.8 c18.2,7.1,48.2,11.6,77.2,16c16.4,2.5,32,4.8,45.4,7.6c24.8,5.1,49.3,9.5,73.5,9.5C487.4,149.5,512.5,144.7,537.3,131z M535.9,137.1 c9.5-5,18.5-12,27.2-18.8c15.8-12.3,30.7-24,48.3-24.3v-0.8c-17.9,0.4-32.9,12.1-48.8,24.5c-8.7,6.8-17.6,13.8-27.1,18.7 c-57.8,30.4-115,17.1-164,2.3c-20.5-6.2-42.6-6.2-64-6.3c-19.1,0-37.1-0.1-50.9-4.8c-22.2-7.7-42.6-10.3-64.2-13.1 c-19.8-2.5-40.3-5.1-64.9-11.8c-16.8-4.5-25.1-16.2-33.2-27.4c-6.5-9.1-12.7-17.6-22.7-22C45.7,42.2,30.9,60,17.8,75.6 C12,82.6,6.5,89.1,0.6,92.2L1,92.9c6-3.1,11.5-9.8,17.4-16.8c12.9-15.4,27.6-32.9,52.9-22c9.9,4.2,16,12.7,22.4,21.7 c8.2,11.4,16.6,23.1,33.6,27.7c24.7,6.7,45.2,9.3,65,11.8c21.5,2.7,41.9,5.3,64.1,13c13.9,4.8,32,4.8,51.1,4.9 c21.3,0,43.4,0.1,63.7,6.2c27.4,8.3,57.4,16.1,88.6,16.1C484.6,155.5,510.2,150.6,535.9,137.1z M534.5,143.2 c10.6-5.3,20.3-13.2,29.7-20.9c15.4-12.6,30-24.4,47.2-25v-0.8c-17.5,0.6-32.1,12.5-47.7,25.1c-9.4,7.6-19.1,15.5-29.6,20.8 c-29.8,15-60.4,20.9-93.6,18.1c-31.5-2.7-61.2-12.9-86-22.5c-23-8.9-45.1-4.5-64.6-0.7c-15.3,3-29.8,5.9-42.7,2 c-17.8-5.3-35.3-9.5-53.8-13.9c-22.8-5.4-46.3-11-72.4-19.3c-14.6-4.6-22.8-15.4-30.6-25.8c-6.7-8.8-13-17.1-22.7-21.1 C43,49.1,28,68.4,16,83.9c-5.3,6.8-10.3,13.3-15.4,16.3l0.4,0.6c5.2-3.1,10.2-9.6,15.6-16.5C29.1,68.3,43.2,50,67.5,60 c9.5,3.9,15.8,12.2,22.4,20.9c8,10.5,16.2,21.4,31,26.1c26.1,8.3,49.6,13.9,72.4,19.3c18.5,4.4,36,8.5,53.8,13.9 c13,3.9,27.6,1,43.1-2c19.4-3.8,41.4-8.2,64.2,0.7c24.9,9.6,54.6,19.9,86.2,22.6c5.4,0.5,10.7,0.7,15.9,0.7 C483.7,162,509.4,155.8,534.5,143.2z M533.2,149.3c11.5-5.5,21.9-14.4,31.9-22.9c15.2-12.9,29.5-25,46.5-25.7V100 c-17.2,0.7-31.7,12.9-46.9,25.9c-10,8.5-20.4,17.3-31.8,22.8c-73.6,35.5-137.3,15.6-195.2-11.2c-24.6-11.4-44.4-2.4-61.8,5.5 c-13,5.9-25.2,11.5-37.9,8.3c-37.7-9.5-81.6-25.8-123.2-41.6c-12.4-4.7-20.3-14.5-27.9-24C80,77,73.4,68.9,64,65.2 c-23.7-9.2-38.1,11-49.7,27.3c-4.9,6.9-9.2,12.9-13.5,15.8l0.4,0.6c4.4-3,8.7-9,13.7-16c11.5-16,25.7-36,48.9-27 c9.3,3.6,15.7,11.7,22.6,20.3c7.7,9.6,15.6,19.5,28.2,24.3c41.7,15.8,85.5,32.1,123.3,41.6c12.9,3.3,25.3-2.4,38.4-8.3 c17.3-7.9,36.9-16.8,61.2-5.5c35.7,16.5,73.5,30.4,114.6,30.4C477.6,168.5,504.7,163.1,533.2,149.3z M531.7,155.4 c12.4-5.7,23.3-15.4,34-24.8c15-13.2,29.2-25.7,45.9-26.5v-0.7c-17,0.8-31.3,13.4-46.4,26.7c-10.6,9.3-21.5,19-33.8,24.7 C448.5,193.3,381,169,320.5,136.9c-25.9-13.8-42.9-0.2-57.9,11.8c-11,8.8-21.4,17.1-34.2,14.5c-27.6-5.6-63.4-22.8-95-38 c-8.9-4.3-17.3-8.3-25.2-11.9c-10.1-4.6-17.5-13.4-24.7-21.9C76.2,82.6,69.2,74.5,60,71.1c-22.7-8.2-37.2,14-47.8,30.2 c-4.3,6.6-8,12.3-11.5,15l0.5,0.6c3.6-2.8,7.4-8.5,11.7-15.2C24,84.8,37.7,63.8,59.8,71.8c9.1,3.3,15.9,11.4,23.2,20 c7.2,8.5,14.7,17.4,25,22.1c7.9,3.6,16.3,7.7,25.2,11.9c31.7,15.2,67.6,32.4,95.2,38c13.1,2.7,23.7-5.8,34.8-14.7 c15.5-12.4,31.6-25.2,57.1-11.7c38.5,20.4,79.9,37.7,126.2,37.7C473.1,175.2,501.3,169.5,531.7,155.4z M530.4,161.5 c13.2-5.9,24.7-16.4,35.8-26.6c14.9-13.6,28.9-26.4,45.5-27.3v-0.7c-16.9,0.9-31,13.9-46,27.5c-11.1,10.1-22.5,20.6-35.6,26.5 c-41.3,18.5-80.8,24.3-121,17.7c-32.5-5.4-65.1-18.4-105.4-42.3c-27.1-16-40.6,1.2-53.6,17.8c-9.2,11.8-17.9,22.9-31,20.9 c-26.2-4-65-27.2-96.1-45.8c-7.7-4.6-14.9-8.9-21.2-12.5c-7.8-4.4-14.5-12-21-19.3c-8-8.9-15.4-17.3-24.7-20.4 C34.3,69.7,20.3,93.3,10,110.5c-3.6,6.1-6.7,11.3-9.4,13.8l0.5,0.5c2.8-2.6,5.9-7.9,9.6-14c10.1-17,24-40.2,45.2-33.2 c9,3,16.5,11.4,24.3,20.2c6.5,7.3,13.3,14.9,21.2,19.4c6.3,3.6,13.5,7.9,21.2,12.5c31.2,18.7,70,41.9,96.4,45.9 c13.4,2,22.3-9.3,31.7-21.2c12.8-16.4,26.1-33.3,52.6-17.6c40.5,23.9,73.1,37,105.7,42.4c10.7,1.8,21.4,2.7,32.1,2.7 C470.6,181.9,500.1,175.1,530.4,161.5z M529.1,167.6c14-6.1,26-17.4,37.6-28.4c14.7-14,28.7-27.2,45.2-28.2v-0.7 c-16.8,1.1-30.8,14.4-45.7,28.4c-11.5,10.9-23.5,22.3-37.4,28.3c-45.1,19.6-87.8,25.4-130.3,17.5c-34.6-6.4-70.1-21.9-111.8-48.8 c-9.4-6.1-17.3-8.1-24.3-6.2c-11.5,3.1-18.3,16.6-24.8,29.7c-7.5,14.9-14.5,29-27.9,27.7c-27.3-2.6-76.1-38.5-105.3-60 c-3.3-2.4-6.4-4.7-9.1-6.6c-5.4-3.9-10.7-9.6-16.3-15.7C70.5,95.4,61.7,85.9,52.2,83C31,76.6,17,103,7.7,120.4 c-2.8,5.2-5.2,9.7-7.1,12l0.6,0.5c2-2.3,4.4-6.9,7.2-12.1c9.2-17.2,23.1-43.2,43.7-37.1c9.3,2.8,18.1,12.3,26.5,21.4 c5.6,6.1,10.9,11.8,16.4,15.7c2.7,2,5.8,4.2,9.1,6.6c29.2,21.5,78.2,57.5,105.6,60.1c0.6,0.1,1.2,0.1,1.8,0.1 c12.7,0,19.6-13.7,26.8-28.2c6.5-12.9,13.2-26.3,24.4-29.3c6.7-1.8,14.5,0.2,23.7,6.1c41.8,27,77.4,42.5,112.1,48.9 c12.3,2.3,24.6,3.4,37,3.4C465.9,188.6,496.9,181.6,529.1,167.6z M225.7,164c4.8-15.4,9.8-31.4,20.4-35c6.2-2.1,13.7,0,23.1,6.5 c43.7,30.4,81.4,48,118.5,55.5c45,9,90.8,3.4,140-17.4c14.8-6.2,27.2-18.4,39.2-30.2c14.7-14.4,28.5-28,45-29.2l-0.1-0.7 c-16.7,1.2-30.7,14.9-45.4,29.4c-12,11.8-24.4,23.9-39,30.1c-49,20.7-94.7,26.4-139.6,17.3c-37-7.4-74.6-25-118.2-55.4 c-9.6-6.7-17.3-8.8-23.7-6.6c-10.9,3.7-16,19.9-20.9,35.5c-5.6,17.9-10.9,34.8-24.2,34.8c-0.2,0-0.4,0-0.6,0 c-12-0.4-32.2-10.9-58.4-30.3c-20.1-14.9-41.1-33.1-53-44.7c-2.6-2.5-5.5-5.7-8.6-9.1c-9.4-10.2-21.2-23-31.9-25.8 C27.5,83.4,13,114.5,5.1,131.3c-1.9,4.1-3.4,7.3-4.6,9.1l0.6,0.4c1.2-1.9,2.7-5.1,4.6-9.2c7.7-16.5,22.1-47.3,42.4-42 c10.5,2.7,22.2,15.4,31.5,25.6c3.1,3.4,6,6.6,8.7,9.1c19.8,19.2,82.9,74.1,111.8,75.2c0.2,0,0.4,0,0.6,0 C214.6,199.4,220.3,181.4,225.7,164z M190.9,211.2c14.7-0.4,18.6-22.1,22.3-43c3.2-17.9,6.5-36.4,16.6-40.4c5.7-2.2,13,0.1,22.5,7.1 c45.6,33.8,85.3,53.5,124.8,62c47.4,10.2,96.2,4.6,149.3-17.2c15.5-6.4,28.4-19.4,40.8-32c14.6-14.8,28.4-28.8,44.8-30.1V117 c-16.7,1.3-30.6,15.4-45.3,30.3c-12.4,12.5-25.2,25.5-40.6,31.8c-52.9,21.7-101.6,27.3-148.9,17.2c-39.4-8.5-79-28.2-124.5-61.9 c-9.7-7.2-17.3-9.5-23.2-7.2c-10.5,4.2-13.7,22-17,40.9c-3.7,20.6-7.5,41.9-21.6,42.4c-15.1,0.5-42.9-20.7-58.1-33.3 c-23.3-19.3-43.3-40.2-50.3-50c-6.7-9.4-24.8-29.6-38-32.5c-21.4-4.6-36.7,35-42.4,49.8c-0.6,1.6-1.1,3-1.5,3.9l0.7,0.3 c0.4-1,0.9-2.3,1.5-3.9C8.5,130.1,23.6,91,44.3,95.5c11.9,2.5,29.1,20.3,37.5,32.2c14.8,20.7,81.6,83.6,108.5,83.6 C190.5,211.2,190.7,211.2,190.9,211.2z" style="fill: url(&quot;#__id10_sxtl7nltdb&quot;);"></path></svg>