<svg width="197" height="102" viewBox="0 0 197 102" fill="none" xmlns="http://www.w3.org/2000/svg">
    <g clip-path="url(#clip0)">
        <path d="M71.262 1.2457C70.9005 1.52965 70.8402 1.68582 70.8553 2.26792C70.8703 2.65125 71.262 6.4136 71.7289 10.6161C72.1958 14.8185 72.5121 18.3253 72.4519 18.3821C72.3766 18.4531 65.7492 22.2722 57.7211 26.8722C49.708 31.4722 42.915 35.4333 42.6439 35.6747C41.9209 36.342 41.6197 37.0377 41.5594 38.2019C41.4841 39.437 41.8305 40.2605 42.7343 40.9704C43.0958 41.2685 46.9969 43.0432 53.2326 45.7549L63.1585 50.0852L64.0924 64.8506C64.6196 72.9858 65.0413 79.7296 65.0262 79.8574C65.0262 79.9994 61.6071 82.4981 56.6668 85.9623C52.0728 89.1994 48.3073 91.8827 48.3073 91.9395C48.3073 92.0105 48.3675 92.0531 48.4278 92.0531C48.5031 92.0531 52.3138 90.0654 56.9077 87.6518C63.52 84.1593 65.2672 83.3074 65.2823 83.492C65.3124 83.6339 65.5685 87.5099 65.8547 92.1241C66.1408 96.7383 66.4571 100.685 66.5626 100.898C66.7433 101.324 67.3759 101.707 67.888 101.707C68.4002 101.707 69.0328 101.324 69.2286 100.898C69.3641 100.572 69.1985 98.7117 68.4152 91.3432C67.6471 84.1309 67.4814 82.1574 67.632 82.0296C67.888 81.8167 78.6876 76.1518 78.8382 76.1518C78.9135 76.1518 79.26 78.9204 79.6215 82.2852C79.9829 85.6642 80.3444 88.4895 80.4197 88.5747C80.5101 88.6599 80.5252 88.2339 80.4649 87.5099C79.8775 80.3685 79.5461 75.7827 79.6215 75.7117C79.6666 75.6549 83.7485 73.4969 88.6738 70.8988C93.5991 68.3006 97.8466 66.029 98.1027 65.8444C99.2173 65.0636 99.5637 63.1611 98.8558 61.7414C98.1629 60.3642 97.8617 60.1796 87.4086 55.0117C82.0465 52.3568 77.6182 50.1704 77.5881 50.142C77.5278 50.071 75.2685 21.321 75.2685 20.5827C75.2685 20.1142 75.4944 19.9296 83.0857 14.1512C87.3935 10.8858 90.9181 8.17409 90.9181 8.1031C90.9331 8.04631 90.8729 8.00372 90.7825 8.00372C90.7072 8.00372 87.1375 10.0198 82.8447 12.4759C78.5671 14.9321 75.0275 16.9198 74.9974 16.8914C74.9522 16.8346 73.7773 2.43829 73.7623 1.7852C73.7623 1.68582 73.5966 1.44446 73.3857 1.25989C72.8887 0.777177 71.8343 0.762981 71.262 1.2457ZM74.5003 35.7599C75.3287 43.171 75.9764 49.2617 75.9463 49.2901C75.9011 49.3327 63.52 43.242 63.3393 43.0858C63.2941 43.0432 63.0531 41.1975 62.8272 38.9827C62.6012 36.7821 62.3452 34.979 62.2699 34.979C62.1946 34.979 62.1644 35.2914 62.2247 35.7173C62.3904 37.1228 62.6615 42.5037 62.5711 42.5889C62.5259 42.6457 60.1762 41.5383 57.3596 40.1469C54.543 38.7556 52.2535 37.6056 52.2686 37.5914C52.2837 37.5772 56.9379 34.042 62.6163 29.7259C68.7315 25.0833 72.9489 21.9599 72.979 22.0735C72.9941 22.187 73.687 28.3346 74.5003 35.7599ZM70.6745 53.3648C73.9731 54.813 76.6843 56.0056 76.6994 56.0198C76.8048 56.1191 78.311 70.4728 78.2508 70.6432C78.1604 70.842 67.15 78.6364 67.0747 78.5512C67.0295 78.4944 64.1074 51.0932 64.1225 50.7667C64.1225 50.6389 64.2279 50.6105 64.4087 50.6673C64.5593 50.7099 67.391 51.9309 70.6745 53.3648ZM84.5016 59.3988C87.7851 60.8327 90.4813 62.0395 90.4813 62.0821C90.4662 62.1247 87.9056 63.9704 84.7878 66.171L79.1093 70.1747L78.9135 67.7327C78.055 56.8858 78.0399 56.5735 78.2809 56.687C78.4014 56.7438 81.203 57.9648 84.5016 59.3988Z" fill="#F8F8F8"/>
    </g>
    <defs>
        <clipPath id="clip0">
            <rect x="0.529297" y="0.904968" width="195.507" height="100.802" fill="white"/>
        </clipPath>
    </defs>
</svg>
