<?xml version="1.0" standalone="no"?>
<!DOCTYPE svg PUBLIC "-//W3C//DTD SVG 20010904//EN"
 "http://www.w3.org/TR/2001/REC-SVG-20010904/DTD/svg10.dtd">
<svg version="1.0" xmlns="http://www.w3.org/2000/svg"
 width="1298.000000pt" height="710.000000pt" viewBox="0 0 1298.000000 710.000000"
 preserveAspectRatio="xMidYMid meet">
<metadata>
Created by potrace 1.15, written by Peter Selinger 2001-2017
</metadata>
<g transform="translate(0.000000,710.000000) scale(0.100000,-0.100000)"
fill="#f8f8f8" stroke="none">
<path d="M1974 7076 c-24 -20 -28 -31 -27 -72 1 -27 27 -292 58 -588 31 -296
52 -543 48 -547 -5 -5 -445 -274 -978 -598 -532 -324 -983 -603 -1001 -620
-48 -47 -68 -96 -72 -178 -5 -87 18 -145 78 -195 24 -21 283 -146 697 -337
l659 -305 62 -1040 c35 -573 63 -1048 62 -1057 0 -10 -227 -186 -555 -430
-305 -228 -555 -417 -555 -421 0 -5 4 -8 8 -8 5 0 258 140 563 310 439 246
555 306 556 293 2 -10 19 -283 38 -608 19 -325 40 -603 47 -618 12 -30 54 -57
88 -57 34 0 76 27 89 57 9 23 -2 154 -54 673 -51 508 -62 647 -52 656 17 15
734 414 744 414 5 0 28 -195 52 -432 24 -238 48 -437 53 -443 6 -6 7 24 3 75
-39 503 -61 826 -56 831 3 4 274 156 601 339 327 183 609 343 626 356 74 55
97 189 50 289 -46 97 -66 110 -760 474 -356 187 -650 341 -652 343 -4 5 -154
2030 -154 2082 0 33 15 46 519 453 286 230 520 421 520 426 1 4 -3 7 -9 7 -5
0 -242 -142 -527 -315 -284 -173 -519 -313 -521 -311 -3 4 -81 1018 -82 1064
0 7 -11 24 -25 37 -33 34 -103 35 -141 1z m215 -2431 c55 -522 98 -951 96
-953 -3 -3 -825 426 -837 437 -3 3 -19 133 -34 289 -15 155 -32 282 -37 282
-5 0 -7 -22 -3 -52 11 -99 29 -478 23 -484 -3 -4 -159 74 -346 172 -187 98
-339 179 -338 180 1 1 310 250 687 554 406 327 686 547 688 539 1 -8 47 -441
101 -964z m-254 -1240 c219 -102 399 -186 400 -187 7 -7 107 -1018 103 -1030
-6 -14 -737 -563 -742 -557 -3 4 -197 1934 -196 1957 0 9 7 11 19 7 10 -3 198
-89 416 -190z m918 -425 c218 -101 397 -186 397 -189 -1 -3 -171 -133 -378
-288 l-377 -282 -13 172 c-57 764 -58 786 -42 778 8 -4 194 -90 413 -191z"/>
<path d="M10995 4675 l-57 -64 21 -27 c40 -50 91 -104 100 -104 5 0 34 29 65
64 l56 64 -57 66 c-31 36 -60 66 -64 66 -4 0 -33 -29 -64 -65z"/>
<path d="M10120 4055 l0 -655 80 0 80 0 0 655 0 655 -80 0 -80 0 0 -655z"/>
<path d="M6055 4671 c-227 -57 -393 -211 -471 -436 -38 -110 -40 -273 -5 -385
38 -125 87 -206 176 -296 128 -129 262 -184 445 -184 89 0 173 14 246 41 58
22 57 19 70 178 l7 83 -62 -46 c-171 -125 -383 -111 -555 36 -172 147 -214
394 -105 610 125 247 454 325 675 158 l54 -41 0 26 c0 15 -5 69 -12 120 l-11
95 -52 19 c-117 44 -277 53 -400 22z"/>
<path d="M10470 4450 l0 -110 -45 0 -45 0 0 -80 0 -80 44 0 44 0 5 -302 c3
-224 8 -313 18 -343 20 -59 94 -130 149 -145 47 -13 206 -10 228 4 13 8 18
180 4 174 -103 -45 -150 -46 -199 -3 l-28 23 -3 296 -3 296 121 0 120 0 0 80
0 80 -120 0 -120 0 0 110 0 110 -85 0 -85 0 0 -110z"/>
<path d="M12865 4379 c-58 -14 -129 -20 -255 -22 -199 -4 -245 -15 -326 -76
-62 -47 -99 -101 -120 -178 -34 -126 2 -254 94 -333 l50 -44 -28 -78 c-16 -43
-25 -78 -20 -78 4 0 43 17 86 38 75 35 84 37 179 37 91 0 104 -2 147 -28 134
-78 136 -270 3 -352 -44 -27 -56 -30 -134 -30 -74 0 -94 4 -142 28 -52 25
-131 97 -156 141 -10 18 -15 16 -77 -28 -41 -30 -64 -52 -59 -59 3 -7 26 -37
49 -67 73 -93 178 -152 308 -172 190 -29 370 52 443 200 22 46 28 73 31 150 4
91 4 95 -33 168 -25 52 -48 84 -75 103 l-39 28 46 38 c69 58 98 128 97 235 -1
86 -11 122 -58 193 l-18 27 30 0 c17 0 33 3 35 8 3 4 16 44 30 90 29 95 36 90
-88 61z m-193 -215 c23 -16 53 -45 65 -63 83 -123 -21 -290 -182 -291 -76 0
-121 17 -169 63 -102 97 -79 243 47 303 43 21 64 24 124 22 61 -3 78 -8 115
-34z"/>
<path d="M6943 4345 c-116 -32 -228 -113 -292 -214 -100 -157 -96 -381 10
-540 52 -77 105 -123 198 -169 70 -35 82 -37 185 -40 93 -3 121 0 174 17 288
97 420 416 286 689 -99 204 -344 315 -561 257z m265 -180 c203 -110 238 -384
70 -541 -68 -64 -126 -88 -213 -88 -57 0 -81 6 -128 29 -226 112 -254 429 -51
575 67 48 109 60 194 57 61 -3 86 -9 128 -32z"/>
<path d="M7948 4345 c-25 -8 -69 -30 -97 -49 l-51 -35 0 40 0 39 -85 0 -85 0
0 -470 0 -470 84 0 85 0 3 313 c3 298 4 314 25 352 47 87 123 135 215 135 90
0 159 -53 178 -136 5 -21 10 -180 10 -351 l0 -313 80 0 81 0 -3 358 -3 357
-33 67 c-35 72 -79 115 -152 149 -59 28 -186 35 -252 14z"/>
<path d="M8685 4346 c-101 -32 -165 -92 -191 -182 -27 -95 -7 -182 60 -252 41
-44 87 -67 217 -108 90 -29 112 -40 139 -71 29 -32 32 -41 27 -82 -4 -34 -13
-52 -36 -73 -83 -74 -216 -56 -304 41 -20 23 -39 41 -40 41 -2 0 -28 -27 -57
-61 l-53 -61 43 -43 c24 -24 70 -59 104 -77 54 -29 72 -33 158 -36 116 -5 182
12 253 66 142 109 139 340 -5 436 -38 25 -134 60 -239 86 -90 23 -133 99 -96
169 44 85 218 79 312 -11 l31 -30 46 58 c25 33 46 64 46 71 0 16 -55 60 -109
87 -88 44 -222 58 -306 32z"/>
<path d="M11628 4345 c-25 -8 -69 -30 -97 -49 l-51 -35 0 40 0 39 -85 0 -85 0
0 -470 0 -470 84 0 85 0 3 313 c3 298 4 314 25 352 47 87 123 135 215 135 90
0 159 -53 178 -136 5 -21 10 -180 10 -351 l0 -313 80 0 81 0 -3 358 -3 357
-33 67 c-35 72 -79 115 -152 149 -59 28 -186 35 -252 14z"/>
<path d="M9202 3973 c3 -363 3 -369 27 -421 32 -70 103 -134 176 -157 86 -26
232 -18 302 18 28 15 54 31 58 37 12 20 25 10 25 -20 l0 -30 85 0 85 0 0 470
0 470 -85 0 -85 0 0 -267 c0 -177 -5 -288 -13 -329 -29 -136 -106 -207 -226
-208 -86 -1 -127 22 -161 89 -25 50 -25 51 -28 383 l-4 332 -79 0 -80 0 3
-367z"/>
<path d="M10980 3870 l0 -470 80 0 80 0 0 470 0 470 -80 0 -80 0 0 -470z"/>
<path d="M6072 2840 c-229 -31 -415 -188 -488 -413 -34 -105 -39 -267 -10
-362 77 -256 281 -418 546 -432 163 -9 291 24 418 110 l62 42 0 252 0 253
-240 0 -240 0 0 -65 0 -65 170 0 171 0 -3 -152 -3 -153 -71 -36 c-185 -95
-401 -64 -543 79 -185 185 -188 479 -8 670 158 166 396 189 593 57 37 -25 69
-45 73 -45 3 1 23 23 44 51 45 58 45 59 -45 119 -110 73 -281 109 -426 90z"/>
<path d="M7080 2536 c-68 -14 -137 -53 -179 -101 l-31 -36 0 56 0 55 -65 0
-65 0 0 -425 0 -425 64 0 65 0 3 263 3 262 28 57 c55 113 168 183 257 160 l40
-10 10 37 c6 20 13 52 16 72 5 32 3 37 -17 42 -33 9 -65 7 -129 -7z"/>
<path d="M7544 2511 c-238 -87 -358 -346 -271 -587 29 -80 112 -180 188 -227
95 -58 253 -74 372 -37 164 51 287 207 304 386 17 184 -84 362 -252 445 -65
32 -77 34 -180 36 -87 2 -121 -1 -161 -16z m252 -118 c70 -24 164 -119 190
-193 44 -130 9 -267 -92 -360 -69 -62 -132 -84 -224 -78 -160 12 -280 140
-288 308 -7 137 58 249 180 309 72 36 154 41 234 14z"/>
<path d="M9381 2510 c-61 -22 -68 -27 -133 -89 l-48 -45 0 67 0 67 -65 0 -65
0 0 -580 0 -580 65 0 65 0 0 217 0 217 38 -36 c79 -78 186 -112 326 -106 80 3
102 8 159 37 153 75 247 228 247 403 0 209 -117 378 -299 432 -77 23 -221 21
-290 -4z m252 -116 c68 -23 138 -91 172 -166 36 -79 40 -183 11 -268 -25 -73
-111 -160 -180 -183 -154 -52 -330 22 -403 171 -24 49 -28 69 -27 137 1 85 19
139 67 203 32 42 97 91 145 108 51 18 159 17 215 -2z"/>
<path d="M8240 2181 c0 -222 4 -339 12 -362 21 -61 64 -114 120 -144 45 -25
67 -30 144 -33 110 -5 171 12 233 64 l41 36 0 -41 0 -41 65 0 65 0 0 425 0
425 -64 0 -65 0 -3 -272 c-3 -254 -5 -277 -26 -328 -24 -60 -80 -122 -125
-139 -16 -6 -57 -11 -91 -11 -49 0 -70 5 -96 23 -82 55 -90 96 -90 453 l0 274
-60 0 -60 0 0 -329z"/>
</g>
</svg>
